<svg width="158" height="49" viewBox="0 0 158 49" fill="none" xmlns="http://www.w3.org/2000/svg">
<g clip-path="url(#clip0_310_13977)">
<path d="M24.5609 0C10.9995 0 0 10.9726 0 24.5009V49H5.13096V24.5009C5.13096 13.7185 13.7521 5.11841 24.5609 5.11841H37.3865V0H24.5609Z" fill="#00B895"/>
<path d="M43.9891 0V24.5009C43.9891 30.3587 41.4434 35.5722 37.3865 39.1113V10.6586H32.2556V42.3274C30.649 43.0112 28.9273 43.485 27.1246 43.7183V19.4309H21.9937V43.8816H16.8627V28.2033H11.7318V48.9982H24.5591C38.1206 48.9982 49.1183 38.0274 49.1183 24.4991V0H43.9891Z" fill="#1F4A8C"/>
<path d="M59.2039 20.75C58.3655 20.4072 57.6963 19.8993 57.1943 19.2281C56.6924 18.5569 56.4279 17.7475 56.4009 16.8017H60.152C60.206 17.3365 60.3913 17.7439 60.7079 18.0257C61.0246 18.3075 61.4365 18.4474 61.9439 18.4474C62.4512 18.4474 62.8776 18.3272 63.1816 18.0867C63.4839 17.848 63.635 17.5142 63.635 17.0889C63.635 16.7317 63.5145 16.4374 63.2752 16.2041C63.0341 15.9708 62.7391 15.7788 62.3883 15.628C62.0374 15.4773 61.5391 15.3068 60.8932 15.1147C59.9577 14.8276 59.1967 14.5386 58.6048 14.2515C58.0147 13.9643 57.5056 13.539 57.0792 12.9773C56.6528 12.4155 56.4405 11.6815 56.4405 10.777C56.4405 9.43459 56.9281 8.38111 57.9032 7.62017C58.8783 6.85923 60.1502 6.47876 61.7172 6.47876C63.2842 6.47876 64.5957 6.85923 65.5726 7.62017C66.5477 8.38111 67.0694 9.43997 67.1396 10.7967H63.3256C63.2986 10.3301 63.1259 9.96402 62.811 9.69661C62.4944 9.4292 62.0896 9.2964 61.5949 9.2964C61.1685 9.2964 60.8249 9.40946 60.564 9.63559C60.3031 9.86172 60.1718 10.1884 60.1718 10.6119C60.1718 11.0785 60.3913 11.441 60.8321 11.7013C61.271 11.9615 61.9583 12.2433 62.8938 12.5448C63.8275 12.8606 64.5867 13.1621 65.1714 13.4493C65.7561 13.7364 66.2599 14.1546 66.6862 14.7038C67.1126 15.2529 67.3249 15.9582 67.3249 16.8215C67.3249 17.6847 67.1144 18.3918 66.697 19.063C66.2779 19.7342 65.6698 20.269 64.8728 20.6675C64.0758 21.0659 63.1349 21.2633 62.0482 21.2633C60.9616 21.2633 60.0423 21.0928 59.2039 20.75Z" fill="#1F4A8C"/>
<path d="M69.8184 10.0681C70.4373 8.95005 71.2991 8.07963 72.4055 7.45688C73.5119 6.83412 74.7659 6.52185 76.1674 6.52185C77.8855 6.52185 79.3553 6.97411 80.5787 7.87862C81.8021 8.78314 82.6188 10.0179 83.0308 11.5792H79.1556C78.8678 10.9762 78.4576 10.5168 77.9286 10.2009C77.3997 9.88507 76.7988 9.72893 76.1242 9.72893C75.0375 9.72893 74.1596 10.1058 73.4849 10.8596C72.8121 11.6133 72.4757 12.6219 72.4757 13.8818C72.4757 15.1417 72.8121 16.1503 73.4849 16.904C74.1578 17.6578 75.0375 18.0347 76.1242 18.0347C76.797 18.0347 77.3979 17.8768 77.9286 17.5627C78.4576 17.2468 78.866 16.7892 79.1556 16.1844H83.0308C82.6188 17.7475 81.8003 18.9769 80.5787 19.876C79.3553 20.7734 77.8855 21.222 76.1674 21.222C74.7659 21.222 73.5119 20.9098 72.4055 20.287C71.2991 19.6643 70.4373 18.7956 69.8184 17.6865C69.1995 16.5756 68.8901 15.3086 68.8901 13.8818C68.8901 12.455 69.1995 11.1844 69.8184 10.0681Z" fill="#1F4A8C"/>
<path d="M88.2985 20.3193C87.1651 19.6894 86.2638 18.8082 85.5981 17.6776C84.9306 16.5469 84.5978 15.2745 84.5978 13.8639C84.5978 12.4533 84.9306 11.1844 85.5981 10.0592C86.2638 8.93571 87.1651 8.05811 88.2985 7.42638C89.4319 6.79645 90.6787 6.48059 92.0388 6.48059C93.3989 6.48059 94.6456 6.79645 95.7808 7.42638C96.9143 8.05632 97.8084 8.93391 98.4597 10.0592C99.1127 11.1826 99.4384 12.4515 99.4384 13.8639C99.4384 15.2763 99.1091 16.5469 98.4489 17.6776C97.7886 18.8082 96.8963 19.6894 95.7701 20.3193C94.6438 20.9493 93.3989 21.2651 92.0388 21.2651C90.6787 21.2651 89.4319 20.9493 88.2985 20.3193ZM94.8129 16.9059C95.5074 16.1377 95.8546 15.1237 95.8546 13.8621C95.8546 12.6004 95.5074 11.5685 94.8129 10.8093C94.1185 10.0484 93.1938 9.66793 92.0406 9.66793C90.8874 9.66793 89.9411 10.0448 89.2484 10.7986C88.554 11.5523 88.2067 12.5735 88.2067 13.8621C88.2067 15.1507 88.554 16.1557 89.2484 16.9148C89.9429 17.6758 90.873 18.0562 92.0406 18.0562C93.2082 18.0562 94.1185 17.6722 94.8129 16.9041V16.9059Z" fill="#1F4A8C"/>
<path d="M104.861 6.68701V15.323C104.861 16.1862 105.073 16.852 105.499 17.3169C105.926 17.7835 106.55 18.0168 107.376 18.0168C108.202 18.0168 108.831 17.7835 109.272 17.3169C109.711 16.8503 109.932 16.1862 109.932 15.323V6.68701H113.457V15.3032C113.457 16.5918 113.181 17.6812 112.633 18.5731C112.082 19.4651 111.345 20.1363 110.416 20.5886C109.488 21.0408 108.455 21.2669 107.315 21.2669C106.174 21.2669 105.154 21.0444 104.254 20.5993C103.355 20.1543 102.643 19.483 102.121 18.5839C101.599 17.6866 101.338 16.5936 101.338 15.305V6.68881H104.863L104.861 6.68701Z" fill="#1F4A8C"/>
<path d="M126.34 6.68698V9.50461H122.506V21.1233H118.982V9.50282H115.148V6.68518H126.34V6.68698Z" fill="#1F4A8C"/>
<path d="M65.3459 34.1329C65.0023 34.7772 64.4518 35.3012 63.6962 35.705C62.9406 36.1088 61.9709 36.3116 60.7907 36.3116H58.1928V42.1102H55.8432V27.8192H60.7907C61.8899 27.8192 62.8218 28.0077 63.5828 28.3845C64.3457 28.7614 64.916 29.2729 65.2938 29.9172C65.6716 30.5615 65.8605 31.2811 65.8605 32.0762C65.8605 32.803 65.6878 33.4886 65.3441 34.1329H65.3459ZM62.7895 33.7937C63.2284 33.3899 63.4497 32.8174 63.4497 32.0762C63.4497 30.513 62.5628 29.7323 60.7907 29.7323H58.1928V34.4003H60.7907C61.683 34.4003 62.3505 34.1975 62.7895 33.7937Z" fill="#00B895"/>
<path d="M75.5503 42.1102L72.2526 36.3942H70.4589V42.1102H68.1093V27.8192H73.0568C74.156 27.8192 75.0879 28.0112 75.8489 28.3953C76.6117 28.7794 77.182 29.2926 77.5598 29.9369C77.9377 30.5812 78.1266 31.3009 78.1266 32.0959C78.1266 33.0292 77.8549 33.8744 77.3116 34.6354C76.7683 35.3963 75.9335 35.9132 74.8073 36.1878L78.3532 42.1102H75.5503ZM70.4589 34.5223H73.0568C73.9365 34.5223 74.5986 34.3034 75.0465 33.8637C75.4927 33.4258 75.7158 32.8353 75.7158 32.0959C75.7158 31.3565 75.4963 30.7768 75.0555 30.3587C74.6148 29.9405 73.9491 29.7323 73.0568 29.7323H70.4589V34.5241V34.5223Z" fill="#00B895"/>
<path d="M83.9897 41.3188C82.8689 40.696 81.9838 39.8256 81.3307 38.7075C80.6776 37.5913 80.352 36.3332 80.352 34.9333C80.352 33.5335 80.6776 32.2808 81.3307 31.1699C81.9838 30.059 82.8689 29.1922 83.9897 28.5694C85.1088 27.9467 86.3357 27.6344 87.6688 27.6344C89.0019 27.6344 90.2487 27.9467 91.3695 28.5694C92.4886 29.194 93.3719 30.0608 94.0178 31.1699C94.6636 32.2808 94.9857 33.5353 94.9857 34.9333C94.9857 36.3314 94.6618 37.5895 94.0178 38.7075C93.3719 39.8256 92.4886 40.696 91.3695 41.3188C90.2487 41.9433 89.0163 42.2538 87.6688 42.2538C86.3213 42.2538 85.1088 41.9415 83.9897 41.3188ZM90.2037 39.5708C90.9449 39.1383 91.526 38.5227 91.9452 37.7205C92.3644 36.9183 92.5731 35.9904 92.5731 34.9333C92.5731 33.8763 92.3626 32.952 91.9452 32.157C91.526 31.3619 90.9449 30.7517 90.2037 30.3264C89.4625 29.9011 88.6169 29.6893 87.6688 29.6893C86.7207 29.6893 85.8752 29.9029 85.1339 30.3264C84.3927 30.7517 83.8116 31.3619 83.3924 32.157C82.9733 32.952 82.7628 33.8781 82.7628 34.9333C82.7628 35.9886 82.9715 36.9183 83.3924 37.7205C83.8116 38.5227 84.3927 39.1401 85.1339 39.5708C85.8752 40.0033 86.7207 40.2187 87.6688 40.2187C88.6169 40.2187 89.4625 40.0033 90.2037 39.5708Z" fill="#00B895"/>
<path d="M99.4186 41.7513C98.6486 41.4157 98.0441 40.9383 97.6051 40.3227C97.1643 39.7053 96.9449 38.9857 96.9449 38.1637H99.46C99.5139 38.7811 99.7586 39.2872 100.192 39.6856C100.626 40.084 101.234 40.2814 102.016 40.2814C102.799 40.2814 103.459 40.0858 103.913 39.6946C104.366 39.3033 104.593 38.8008 104.593 38.1835C104.593 37.7043 104.452 37.313 104.17 37.0115C103.887 36.71 103.538 36.4767 103.119 36.3116C102.7 36.1465 102.119 35.9688 101.378 35.7768C100.442 35.5291 99.6831 35.2797 99.1002 35.0266C98.5155 34.7736 98.0189 34.3788 97.6051 33.8439C97.1931 33.3091 96.9862 32.5966 96.9862 31.7047C96.9862 30.8827 97.1931 30.1631 97.6051 29.5457C98.0171 28.9283 98.5946 28.4563 99.3358 28.1261C100.077 27.7977 100.937 27.6326 101.912 27.6326C103.299 27.6326 104.438 27.9789 105.323 28.6717C106.21 29.3644 106.701 30.3138 106.797 31.5198H104.199C104.157 30.9994 103.911 30.5543 103.458 30.1828C103.004 29.8113 102.407 29.6282 101.664 29.6282C100.991 29.6282 100.44 29.8005 100.014 30.1433C99.5877 30.4861 99.3754 30.9796 99.3754 31.6239C99.3754 32.0636 99.5103 32.4226 99.7766 32.7043C100.045 32.9861 100.385 33.2086 100.797 33.3719C101.209 33.537 101.772 33.7147 102.486 33.9067C103.434 34.167 104.208 34.4272 104.805 34.6874C105.402 34.9477 105.911 35.3497 106.331 35.8899C106.75 36.4319 106.959 37.1551 106.959 38.0596C106.959 38.7865 106.762 39.472 106.37 40.1163C105.978 40.7606 105.408 41.2775 104.659 41.6687C103.911 42.06 103.028 42.2538 102.011 42.2538C101.049 42.2538 100.183 42.0869 99.4132 41.7495L99.4186 41.7513Z" fill="#00B895"/>
<path d="M119.248 34.1329C118.904 34.7772 118.354 35.3012 117.598 35.705C116.843 36.1088 115.873 36.3116 114.693 36.3116H112.095V42.1102H109.745V27.8192H114.693C115.792 27.8192 116.724 28.0077 117.485 28.3845C118.248 28.7614 118.818 29.2729 119.196 29.9172C119.574 30.5615 119.763 31.2811 119.763 32.0762C119.763 32.803 119.59 33.4886 119.246 34.1329H119.248ZM116.691 33.7937C117.13 33.3899 117.352 32.8174 117.352 32.0762C117.352 30.513 116.465 29.7323 114.693 29.7323H112.095V34.4003H114.693C115.585 34.4003 116.253 34.1975 116.691 33.7937Z" fill="#00B895"/>
<path d="M124.361 29.7109V33.905H129.308V35.8182H124.361V40.199H129.925V42.1121H122.01V27.7996H129.925V29.7127H124.361V29.7109Z" fill="#00B895"/>
<path d="M133.007 31.1717C133.66 30.0608 134.545 29.194 135.666 28.5713C136.785 27.9485 138.012 27.6362 139.345 27.6362C140.871 27.6362 142.228 28.0095 143.417 28.7561C144.606 29.5027 145.468 30.5615 146.004 31.9327H143.179C142.809 31.1789 142.292 30.6172 141.634 30.2457C140.974 29.876 140.211 29.6911 139.345 29.6911C138.397 29.6911 137.552 29.9047 136.811 30.3282C136.069 30.7536 135.488 31.3638 135.069 32.1588C134.65 32.9539 134.439 33.8799 134.439 34.9352C134.439 35.9904 134.648 36.9165 135.069 37.7115C135.488 38.5066 136.069 39.1204 136.811 39.5511C137.552 39.9836 138.397 40.199 139.345 40.199C140.211 40.199 140.974 40.0141 141.634 39.6444C142.294 39.2747 142.809 38.713 143.179 37.9574H146.004C145.468 39.3285 144.606 40.3838 143.417 41.1232C142.228 41.8626 140.871 42.2341 139.345 42.2341C137.998 42.2341 136.769 41.9218 135.656 41.2991C134.542 40.6745 133.659 39.8077 133.007 38.6986C132.354 37.5877 132.029 36.3332 132.029 34.9352C132.029 33.5371 132.354 32.2826 133.007 31.1717Z" fill="#00B895"/>
<path d="M158 27.8192V29.7323H154.186V42.1102H151.836V29.7323H148.003V27.8192H158Z" fill="#00B895"/>
</g>
<defs>
<clipPath id="clip0_310_13977">
<rect width="158" height="49" fill="white"/>
</clipPath>
</defs>
</svg>
