<svg width="31" height="20" viewBox="0 0 31 20" fill="none" xmlns="http://www.w3.org/2000/svg">
<path opacity="0.5" fill-rule="evenodd" clip-rule="evenodd" d="M27.7196 8.95818C27.7196 11.8403 25.3971 14.1312 22.4753 14.1312H7.49177C4.56998 14.1312 2.24753 11.8403 2.24753 8.95818C2.24753 6.07606 4.56998 3.78514 7.49177 3.78514H22.4753C25.3971 3.78514 27.7196 6.07606 27.7196 8.95818Z" fill="#00B895"/>
<g filter="url(#filter0_dd_310_13954)">
<path fill-rule="evenodd" clip-rule="evenodd" d="M21.9402 16.3481C26.0778 16.3481 29.432 13.0394 29.432 8.95803C29.432 4.87662 26.0778 1.56797 21.9402 1.56797C17.8026 1.56797 14.4484 4.87662 14.4484 8.95803C14.4484 13.0394 17.8026 16.3481 21.9402 16.3481Z" fill="#00B895"/>
<path d="M29.236 8.95803C29.236 12.9287 25.9721 16.1521 21.9402 16.1521C17.9083 16.1521 14.6444 12.9287 14.6444 8.95803C14.6444 4.98738 17.9083 1.76397 21.9402 1.76397C25.9721 1.76397 29.236 4.98738 29.236 8.95803Z" stroke="url(#paint0_linear_310_13954)" stroke-width="0.388889"/>
<path d="M29.236 8.95803C29.236 12.9287 25.9721 16.1521 21.9402 16.1521C17.9083 16.1521 14.6444 12.9287 14.6444 8.95803C14.6444 4.98738 17.9083 1.76397 21.9402 1.76397C25.9721 1.76397 29.236 4.98738 29.236 8.95803Z" stroke="url(#paint1_linear_310_13954)" stroke-width="0.388889"/>
</g>
<defs>
<filter id="filter0_dd_310_13954" x="12.8805" y="-1.35783e-05" width="18.1196" height="19.4841" filterUnits="userSpaceOnUse" color-interpolation-filters="sRGB">
<feFlood flood-opacity="0" result="BackgroundImageFix"/>
<feColorMatrix in="SourceAlpha" type="matrix" values="0 0 0 0 0 0 0 0 0 0 0 0 0 0 0 0 0 0 127 0" result="hardAlpha"/>
<feOffset dy="1.55556"/>
<feGaussianBlur stdDeviation="0.777778"/>
<feColorMatrix type="matrix" values="0 0 0 0 0 0 0 0 0 0 0 0 0 0 0 0 0 0 0.24 0"/>
<feBlend mode="normal" in2="BackgroundImageFix" result="effect1_dropShadow_310_13954"/>
<feColorMatrix in="SourceAlpha" type="matrix" values="0 0 0 0 0 0 0 0 0 0 0 0 0 0 0 0 0 0 127 0" result="hardAlpha"/>
<feOffset/>
<feGaussianBlur stdDeviation="0.777778"/>
<feColorMatrix type="matrix" values="0 0 0 0 0 0 0 0 0 0 0 0 0 0 0 0 0 0 0.12 0"/>
<feBlend mode="normal" in2="effect1_dropShadow_310_13954" result="effect2_dropShadow_310_13954"/>
<feBlend mode="normal" in="SourceGraphic" in2="effect2_dropShadow_310_13954" result="shape"/>
</filter>
<linearGradient id="paint0_linear_310_13954" x1="14.5218" y1="1.56797" x2="14.5218" y2="16.2035" gradientUnits="userSpaceOnUse">
<stop stop-opacity="0"/>
<stop offset="0.8" stop-opacity="0.02"/>
<stop offset="1" stop-opacity="0.04"/>
</linearGradient>
<linearGradient id="paint1_linear_310_13954" x1="14.4484" y1="1.56797" x2="14.4484" y2="16.3481" gradientUnits="userSpaceOnUse">
<stop stop-color="white" stop-opacity="0.12"/>
<stop offset="0.2" stop-color="white" stop-opacity="0.06"/>
<stop offset="1" stop-color="white" stop-opacity="0"/>
</linearGradient>
</defs>
</svg>
